<svg width="195" height="52" viewBox="0 0 195 52" fill="none" xmlns="http://www.Limelight.org/2000/svg">
<g clip-path="url(#clip0_12_643)">
<path d="M32.6678 20.262C33.0943 20.3812 33.5549 20.4323 33.9984 20.4323C34.9026 20.4323 35.7726 20.1939 36.5573 19.7512C38.9967 18.338 39.8326 15.2221 38.4337 12.7702C37.0179 10.3354 33.8961 9.50107 31.4396 10.8973C28.9831 12.2935 28.1643 15.4264 29.5631 17.8783C30.2455 19.0531 31.3543 19.9045 32.6678 20.262ZM32.2926 12.3786C33.879 11.374 35.9943 11.8338 37.0008 13.4172C38.0073 15.0007 37.5467 17.1121 35.9602 18.1167C35.8749 18.1677 35.7896 18.2188 35.7043 18.2529C34.0667 19.1894 31.9855 18.6275 31.0473 17.0099C30.109 15.3753 30.672 13.2981 32.2926 12.3616V12.3786ZM11.6854 24.0079C8.95601 23.2758 6.14129 24.8763 5.40776 27.6006C5.04953 28.9117 5.23717 30.3249 5.91953 31.4998C6.84071 33.0833 8.52954 34.0538 10.3719 34.0538C11.259 34.0538 12.146 33.8154 12.9137 33.3727C15.3701 31.9595 16.206 28.8436 14.8072 26.3917C14.1248 25.2169 12.999 24.3485 11.6854 24.0079ZM12.0607 31.8914C10.389 32.7598 8.32483 32.1127 7.45483 30.4441C6.636 28.8776 7.14777 26.9366 8.64895 26.0001C9.16072 25.6936 9.75778 25.5404 10.3548 25.5404C10.6619 25.5404 10.9519 25.5744 11.2419 25.6596C12.1119 25.8979 12.8625 26.4598 13.306 27.2431C14.2443 28.8776 13.6813 30.9549 12.0607 31.8914ZM30.7061 42.5672C42.0161 37.8678 47.3555 24.9104 42.6473 13.6216C37.939 2.3498 24.9572 -2.99663 13.6472 1.70278C2.35422 6.40219 -3.00226 19.3766 1.70599 30.6484C5.15188 38.8894 13.2207 44.2699 22.1766 44.2699H54.5885V42.5672H30.7061ZM1.70599 22.135C1.70599 10.8632 10.8837 1.70278 22.1766 1.70278C33.4696 1.70278 42.6473 10.8462 42.6473 22.135C42.6473 33.4238 33.4867 42.5672 22.1766 42.5672C10.8666 42.5672 1.70599 33.4238 1.70599 22.135ZM12.9137 10.8973C10.4572 9.48405 7.33541 10.3184 5.91953 12.7702C4.50364 15.2221 5.33953 18.338 7.79601 19.7512C8.58071 20.1939 9.45072 20.4323 10.3548 20.4323C10.7984 20.4323 11.259 20.3812 11.6854 20.262C14.4148 19.5299 16.0354 16.7375 15.3019 14.0132C14.9437 12.7021 14.0907 11.5784 12.9137 10.8973ZM13.306 17.0269C12.3678 18.6445 10.2866 19.2064 8.64895 18.2699C7.0113 17.3334 6.46541 15.2561 7.40365 13.6216C8.34189 11.987 10.4231 11.4421 12.0607 12.3786C13.6984 13.3151 14.2443 15.3924 13.306 17.0269ZM22.1766 3.40546C19.3449 3.40546 17.059 5.68706 17.059 8.51352C17.059 11.34 19.3449 13.6216 22.1766 13.6216C25.0084 13.6216 27.2943 11.34 27.2943 8.51352C27.2943 5.68706 25.0084 3.40546 22.1766 3.40546ZM22.1766 11.9189C20.3002 11.9189 18.7649 10.3865 18.7649 8.51352C18.7649 6.64056 20.3002 5.10815 22.1766 5.10815C24.0531 5.10815 25.5884 6.64056 25.5884 8.51352C25.5884 10.3865 24.0531 11.9189 22.1766 11.9189ZM38.4337 31.4998C39.8496 29.0649 39.0137 25.932 36.5573 24.5188C35.3802 23.8377 33.9814 23.6504 32.6678 24.0079C29.9384 24.7401 28.3178 27.5325 29.0514 30.2568C29.4096 31.5679 30.2625 32.6916 31.4396 33.3727C32.2073 33.8154 33.0943 34.0538 33.9814 34.0538C35.8237 34.0538 37.5126 33.0833 38.4337 31.4998ZM36.9496 30.6484C36.0796 32.3171 34.0155 32.9641 32.3437 32.0957C30.672 31.2273 30.0237 29.1671 30.8937 27.4985C30.9449 27.4133 30.979 27.3282 31.0302 27.2431C31.9684 25.6255 34.0496 25.0636 35.6873 26.0001C37.3079 26.9366 37.8708 29.0138 36.9326 30.6484H36.9496ZM22.1766 17.0269C19.3449 17.0269 17.059 19.3085 17.059 22.135C17.059 24.9615 19.3449 27.2431 22.1766 27.2431C25.0084 27.2431 27.2943 24.9615 27.2943 22.135C27.2943 19.3085 25.0084 17.0269 22.1766 17.0269ZM22.1766 25.5404C20.3002 25.5404 18.7649 24.0079 18.7649 22.135C18.7649 20.262 20.3002 18.7296 22.1766 18.7296C24.0531 18.7296 25.5884 20.262 25.5884 22.135C25.5884 24.0079 24.0531 25.5404 22.1766 25.5404ZM22.1766 30.6484C19.3449 30.6484 17.059 32.93 17.059 35.7565C17.059 38.5829 19.3449 40.8645 22.1766 40.8645C25.0084 40.8645 27.2943 38.5829 27.2943 35.7565C27.2943 32.93 25.0084 30.6484 22.1766 30.6484ZM22.1766 39.1618C20.3002 39.1618 18.7649 37.6294 18.7649 35.7565C18.7649 33.8835 20.3002 32.3511 22.1766 32.3511C24.0531 32.3511 25.5884 33.8835 25.5884 35.7565C25.5884 37.6294 24.0531 39.1618 22.1766 39.1618Z" fill="black"/>
<path d="M52.3024 32.6064C52.3024 32.4021 52.4559 31.1932 52.7459 28.9457C53.0359 26.6981 53.3259 24.11 53.5989 21.1303C53.8718 18.1506 54.0424 16.499 54.1107 16.1585C54.1789 15.8009 54.3495 15.5285 54.5883 15.3072C54.8271 15.0858 55.2195 14.9836 55.7312 14.9836C56.0554 14.9836 56.3624 15.1199 56.6183 15.4093C56.8742 15.6988 57.0107 15.9882 57.0107 16.3288C57.0107 16.7544 56.9254 17.4525 56.7377 18.4231C56.4818 19.7512 56.1065 22.4414 55.6118 26.5108C55.1171 30.5632 54.8612 32.8789 54.8612 33.4067C54.8612 33.7643 54.9124 33.9856 55.0148 34.1218C55.1171 34.241 55.3218 34.3091 55.6118 34.3091C56.0895 34.3091 57.1983 34.1729 58.9383 33.8834C60.013 33.7132 62.0601 33.5429 65.0624 33.3897C65.6083 33.3726 66.2736 33.2535 67.0583 33.0491C67.2119 33.0151 67.3142 32.981 67.3825 32.981C67.7578 32.981 68.0648 33.1002 68.2866 33.3556C68.5083 33.611 68.6107 33.9005 68.6107 34.258C68.6107 34.8199 68.3889 35.2796 67.9454 35.6202C67.5019 35.9607 67.0242 36.114 66.4783 36.114C66.2736 36.114 65.8472 36.0799 65.233 36.0288C64.6019 35.9777 64.1413 35.9607 63.8172 35.9607C60.5589 35.9607 57.4201 36.4715 54.3836 37.4931C53.8718 37.6634 53.4112 37.7485 53.0018 37.7485C52.5583 37.7485 52.2001 37.5612 51.9612 37.1696C51.7224 36.778 51.5859 36.4034 51.5859 36.0288C51.5859 35.8075 51.6883 35.3307 51.8759 34.5986C52.0806 33.7302 52.2171 33.0832 52.2683 32.6745L52.3024 32.6064Z" fill="black"/>
<path d="M73.9501 33.5088C73.9501 34.275 74.0524 35.1263 74.2571 36.0628C74.2912 36.2501 74.3254 36.3863 74.3254 36.5055C74.3254 36.6928 74.1548 36.9141 73.8306 37.2036C73.5065 37.4931 73.1483 37.6293 72.773 37.6293C71.8006 37.6293 71.323 36.7439 71.323 34.9731C71.323 33.2023 71.6983 30.2396 72.4659 26.2553C72.7218 24.8762 72.8583 24.0078 72.8583 23.7013C72.8583 23.0713 72.9777 22.5435 73.1995 22.1008C73.4212 21.6581 73.7624 21.4367 74.1718 21.4367C74.6836 21.4367 75.0759 21.5559 75.383 21.8113C75.673 22.0497 75.8265 22.3221 75.8265 22.6286C75.8265 22.9351 75.7583 23.3267 75.6218 23.8035C74.8712 26.4426 74.4106 28.3156 74.223 29.4564C74.0354 30.5972 73.9501 31.9423 73.9501 33.5088ZM75.9118 16.7884C75.7071 16.7884 75.5365 16.5671 75.4342 16.1073C75.4001 15.9711 75.3318 15.8179 75.2636 15.6476C74.9907 15.0006 74.8542 14.4387 74.8542 13.9619C74.8542 13.5703 75.093 13.1617 75.5707 12.736C76.0483 12.3103 76.5771 12.123 77.1571 12.123C77.4471 12.123 77.7712 12.2422 78.1295 12.4636C78.4877 12.6849 78.6754 12.9063 78.6754 13.1106C78.6754 13.4341 78.556 13.996 78.3001 14.7792C78.0442 15.5625 77.6689 16.0903 77.123 16.3798C76.5771 16.6692 76.1848 16.7884 75.8948 16.7884H75.9118Z" fill="black"/>
<path d="M91.2818 24.9955C90.3607 25.0126 88.3648 27.7709 85.3112 33.2365C84.2877 35.0754 83.6736 36.08 83.5201 36.2503C83.3665 36.4206 83.0424 36.5568 82.5818 36.693C82.1212 36.8292 81.7459 36.8803 81.4559 36.8803C80.7906 36.8803 80.4495 35.5862 80.4495 32.9811C80.4495 31.5168 80.7565 28.8606 81.3877 25.0126C81.6436 23.4631 81.7801 22.3393 81.7801 21.6753C81.7801 21.0113 82.0701 20.6877 82.6671 20.6877C83.7759 20.6877 84.3389 21.488 84.3389 23.0885C84.3389 23.8377 84.1512 25.302 83.7759 27.4815C83.3495 29.9674 83.1277 31.4998 83.1106 32.0276C83.7248 31.4317 84.6459 30.1206 85.8401 28.0944C87.546 25.319 88.7913 23.5653 89.593 22.8161C90.3948 22.0669 91.2307 21.7094 92.0836 21.7094C92.7319 21.7094 93.2436 22.135 93.636 23.0034C94.0113 23.8718 94.2501 25.949 94.3354 29.2182C94.3524 30.0355 94.4377 30.6485 94.5572 31.0401C94.6766 31.4317 94.7789 31.636 94.8472 31.636C95.3248 31.636 96.3313 30.0355 97.9007 26.8515C98.7366 25.1658 99.5554 23.8888 100.357 23.0034C101.142 22.118 102.029 21.6923 103.001 21.6923C103.803 21.6923 104.4 22.101 104.775 22.9353C105.151 23.7696 105.407 24.9955 105.577 26.6301C105.731 28.2817 105.952 29.7971 106.277 31.1763C106.584 32.5555 107.164 33.4409 108 33.8325C108.562 34.1049 108.852 34.4114 108.852 34.7689C108.852 35.1265 108.614 35.4841 108.136 35.8416C107.658 36.1992 107.215 36.4035 106.822 36.4035C106.021 36.4035 105.304 35.9097 104.673 34.9392C104.042 33.9687 103.564 31.8403 103.257 28.5882C103.121 27.2771 102.984 26.3577 102.848 25.8128C102.711 25.268 102.507 24.9955 102.234 24.9955C101.807 24.9955 101.312 25.3872 100.732 26.1874C100.152 26.9877 99.2313 28.6052 97.9519 31.0571C96.9454 32.9641 96.1948 34.2411 95.683 34.8711C95.1713 35.5011 94.6766 35.8246 94.1819 35.8246C93.7554 35.8246 93.363 35.6543 93.0219 35.3138C92.6807 34.9733 92.4589 34.5476 92.3736 34.0708C92.2883 33.5941 92.186 32.4022 92.0836 30.4952C91.9301 27.3452 91.6571 25.5063 91.2648 24.9955H91.2818Z" fill="black"/>
<path d="M124.359 31.7551C124.359 32.7768 123.455 34.0027 121.647 35.4329C119.839 36.8632 117.979 37.5954 116.069 37.5954C114.465 37.5954 113.22 37.1186 112.35 36.1821C111.48 35.2286 111.036 33.9176 111.036 32.2149C111.036 29.3544 112.008 26.6471 113.936 24.076C115.864 21.505 117.979 20.2109 120.265 20.2109C121.016 20.2109 121.63 20.4493 122.107 20.9431C122.585 21.4369 122.824 22.0158 122.824 22.7139C122.824 24.2463 122.073 25.7276 120.555 27.1238C119.037 28.52 117.024 29.9162 114.499 31.2614C113.987 31.5338 113.714 31.8743 113.714 32.317C113.714 33.1513 113.953 33.8154 114.431 34.3092C114.909 34.8029 115.625 35.0584 116.563 35.0584C118.713 35.0584 120.913 33.8665 123.148 31.4997C123.472 31.1762 123.728 31.006 123.899 31.006C124.223 31.006 124.376 31.2614 124.376 31.7722L124.359 31.7551ZM113.936 29.4225C118.167 26.9025 120.299 24.8933 120.299 23.3609C120.299 22.765 120.026 22.4585 119.497 22.4585C118.576 22.4585 117.536 23.1396 116.393 24.4847C115.233 25.8298 114.431 27.4814 113.953 29.4225H113.936Z" fill="black"/>
<path d="M132.735 11.4932C133.452 11.4932 133.81 11.9529 133.81 12.8723C133.81 13.6896 133.383 15.6307 132.513 18.7125C131.967 20.6536 131.541 22.782 131.234 25.1146C130.927 27.4473 130.79 29.2862 130.79 30.6143C130.79 32.2659 130.893 33.9005 131.097 35.5181C131.132 35.8245 131.166 36.0459 131.166 36.1991C131.166 36.6929 130.995 37.1186 130.654 37.4932C130.313 37.8678 129.955 38.038 129.579 38.038C129.05 38.038 128.675 37.7145 128.47 37.0505C128.266 36.3864 128.163 35.3308 128.163 33.8664C128.163 30.5292 128.573 26.3917 129.375 21.4539C130.176 16.5161 130.825 13.6215 131.285 12.7872C131.746 11.9529 132.24 11.5272 132.735 11.5272V11.4932Z" fill="black"/>
<path d="M139.132 33.5088C139.132 34.275 139.235 35.1263 139.439 36.0628C139.473 36.2501 139.507 36.3863 139.507 36.5055C139.507 36.6928 139.337 36.9141 139.013 37.2036C138.689 37.4931 138.33 37.6293 137.955 37.6293C136.983 37.6293 136.505 36.7439 136.505 34.9731C136.505 33.2023 136.88 30.2396 137.648 26.2553C137.904 24.8762 138.04 24.0078 138.04 23.7013C138.04 23.0713 138.16 22.5435 138.382 22.1008C138.603 21.6581 138.945 21.4367 139.354 21.4367C139.866 21.4367 140.258 21.5559 140.565 21.8113C140.855 22.0497 141.009 22.3221 141.009 22.6286C141.009 22.9351 140.94 23.3267 140.804 23.8035C140.053 26.4426 139.593 28.3156 139.405 29.4564C139.217 30.5972 139.132 31.9423 139.132 33.5088ZM141.094 16.7884C140.889 16.7884 140.719 16.5671 140.616 16.1073C140.582 15.9711 140.514 15.8179 140.446 15.6476C140.173 15.0006 140.036 14.4387 140.036 13.9619C140.036 13.5703 140.275 13.1617 140.753 12.736C141.23 12.3103 141.759 12.123 142.339 12.123C142.629 12.123 142.953 12.2422 143.312 12.4636C143.67 12.6849 143.858 12.9063 143.858 13.1106C143.858 13.4341 143.738 13.996 143.482 14.7792C143.226 15.5625 142.851 16.0903 142.305 16.3798C141.759 16.6692 141.367 16.7884 141.077 16.7884H141.094Z" fill="black"/>
<path d="M155.748 31.4146C155.628 31.3294 155.287 31.6019 154.741 32.2489C153.837 33.3216 152.677 34.258 151.261 35.0924C149.845 35.9267 148.532 36.3353 147.32 36.3353C146.416 36.3353 145.717 36.0459 145.205 35.484C144.693 34.9221 144.438 34.1389 144.438 33.1343C144.438 31.5848 145.018 29.8651 146.195 27.9581C147.372 26.0511 148.992 24.3995 151.108 22.9863C153.206 21.573 155.048 20.8579 156.635 20.8579C157.47 20.8579 158.187 21.0963 158.818 21.573C158.972 21.6922 159.091 21.7944 159.21 21.8795C159.398 22.0157 159.569 22.2711 159.722 22.6628C159.876 23.0544 159.961 23.3779 159.961 23.6163C159.961 23.7695 159.91 23.9909 159.79 24.2973C159.176 25.9489 158.767 27.3281 158.545 28.4178C158.323 29.5076 158.085 31.3294 157.829 33.9175C157.59 36.2332 157.334 38.021 157.044 39.2639C156.754 40.5069 156.259 41.7158 155.526 42.8907C154.792 44.0655 153.922 44.9339 152.899 45.5128C151.875 46.0917 150.835 46.3812 149.743 46.3812C147.866 46.3812 146.024 45.7341 144.216 44.4571C142.408 43.1801 141.486 42.1415 141.486 41.3582C141.486 40.8645 141.674 40.6261 142.049 40.6261C142.237 40.6261 142.766 40.9155 143.653 41.5115C146.007 43.0779 148.122 43.8612 149.999 43.8612C151.636 43.8612 152.882 42.9928 153.735 41.239C154.588 39.4853 155.168 36.8802 155.475 33.4067C155.543 32.6235 155.628 31.9424 155.73 31.3975L155.748 31.4146ZM155.713 23.2076C154.86 23.2076 153.803 23.6503 152.523 24.5187C151.244 25.4041 150.016 26.6811 148.805 28.3838C147.593 30.0865 147.013 31.4997 147.013 32.6405C147.013 33.0321 147.133 33.3386 147.372 33.5599C147.61 33.7813 147.883 33.9005 148.19 33.9005C149.078 33.9005 150.238 33.4408 151.67 32.5213C153.103 31.6019 154.332 30.3248 155.372 28.6903C156.413 27.0557 156.925 25.7787 156.925 24.8592C156.925 23.7525 156.515 23.1906 155.696 23.1906L155.713 23.2076Z" fill="black"/>
<path d="M165.232 32.3341C168.951 25.4723 172.022 22.0499 174.427 22.0499C175.075 22.0499 175.587 22.4074 175.979 23.1396C176.372 23.8717 176.696 25.4893 176.952 27.9922C177.207 30.6484 177.77 32.5895 178.64 33.7643C179.084 34.3773 179.323 34.82 179.323 35.1095C179.323 35.3649 179.169 35.6032 178.879 35.8246C178.589 36.0459 178.265 36.1481 177.924 36.1481C177.139 36.1481 176.457 35.7054 175.86 34.837C175.263 33.9687 174.87 32.4363 174.7 30.2398C174.529 28.1625 174.342 26.8004 174.154 26.1704C173.966 25.5404 173.642 25.2169 173.216 25.2169C172.158 25.2169 170.06 27.9582 166.87 33.4408C165.915 35.0754 165.215 36.1481 164.772 36.6589C164.328 37.1697 163.919 37.4081 163.543 37.4081C163.1 37.4081 162.742 37.2719 162.435 37.0165C162.127 36.7611 161.991 36.4376 161.991 36.063C161.991 35.7905 162.076 35.2457 162.23 34.4454C163.458 28.1114 164.43 21.8455 165.147 15.6478C165.3 14.2005 165.556 13.23 165.915 12.7532C166.273 12.2765 166.563 12.0381 166.802 12.0381C167.228 12.0381 167.62 12.2084 167.979 12.5659C168.337 12.9235 168.507 13.4002 168.507 14.0132C168.507 15.8521 168.064 18.3721 167.16 21.5731C166.716 23.1566 166.256 25.1658 165.761 27.6177C165.266 30.0695 165.027 31.5679 165.027 32.1468C165.027 32.266 165.079 32.3341 165.198 32.3341H165.266H165.232Z" fill="black"/>
<path d="M188.108 21.7264C189.132 21.6412 190.104 21.5561 191.025 21.4369C191.929 21.3347 192.68 21.2837 193.277 21.2837C194.045 21.2837 194.522 21.3518 194.71 21.488C194.898 21.6242 195.017 21.8796 195.017 22.2201C195.017 23.0204 194.454 23.4631 193.328 23.5312C191.878 23.6163 190.548 23.7525 189.319 23.9058C188.108 24.059 187.443 24.1952 187.34 24.2974C187.238 24.3996 186.948 25.5914 186.436 27.856C185.925 30.1206 185.669 31.6019 185.669 32.283C185.669 33.3727 185.805 34.1049 186.095 34.4795C186.385 34.8541 186.812 35.0243 187.392 35.0243C188.245 35.0243 189.439 34.3773 190.974 33.1003C191.571 32.5725 192.015 32.3 192.339 32.3C192.765 32.3 192.987 32.5214 192.987 32.9811C192.987 33.6962 192.288 34.6327 190.906 35.7735C189.524 36.9143 188.108 37.4932 186.658 37.4932C184.236 37.4932 183.025 36.08 183.025 33.2365C183.025 32.2149 183.28 30.6144 183.775 28.469C184.27 26.3236 184.509 25.0296 184.509 24.6039C184.509 24.4506 184.389 24.3825 184.15 24.3825L182.598 24.5188C181.319 24.5188 180.688 24.008 180.688 22.9863C180.688 22.4074 180.978 22.118 181.575 22.118H184.662C184.867 22.118 185.055 22.0158 185.225 21.8285C185.396 21.6412 185.618 21.0112 185.925 19.9215C186.232 18.8318 186.505 17.7761 186.743 16.7034C186.982 15.6478 187.46 15.137 188.159 15.137C188.586 15.137 188.927 15.2902 189.166 15.5797C189.405 15.8691 189.524 16.1586 189.524 16.414C189.524 16.5502 189.336 17.2653 188.978 18.5594L188.108 21.7093V21.7264Z" fill="black"/>
</g>
<defs>
<clipPath id="clip0_12_643">
<rect width="195" height="52" fill="white"/>
</clipPath>
</defs>
</svg>
